<svg xmlns="http://www.w3.org/2000/svg" width="30" height="30" viewBox="0 0 30 30">
    <g fill="none" fill-rule="evenodd">
        <path fill="#58B7FF" d="M15.237 16.627a1.68 1.68 0 0 1-1.685-1.674c0-.925.754-1.674 1.685-1.674.93 0 1.684.749 1.684 1.674a1.68 1.68 0 0 1-1.684 1.674m0-4.456a2.79 2.79 0 0 0-2.8 2.782 2.791 2.791 0 0 0 2.8 2.782c1.546 0 2.8-1.246 2.8-2.782a2.79 2.79 0 0 0-2.8-2.782m4.005 4.413a2.606 2.606 0 0 1-2.614 2.598h-3.256a2.606 2.606 0 0 1-2.614-2.598v-3.237a2.607 2.607 0 0 1 2.614-2.598h3.256a2.607 2.607 0 0 1 2.614 2.598v3.237zm-2.227-6.836h-4.03a3.225 3.225 0 0 0-3.235 3.216v4.005a3.225 3.225 0 0 0 3.235 3.215h4.03a3.225 3.225 0 0 0 3.235-3.215v-4.005a3.225 3.225 0 0 0-3.235-3.216z"/>
        <path fill="#58B7FF" d="M18.262 12.168a.67.67 0 0 1-.672.668.67.67 0 0 1-.671-.668.67.67 0 1 1 1.342 0"/>
        <rect width="29.1" height="29.002" x=".45" y=".45" stroke="#5EBEFF" stroke-width=".9" rx="14.501"/>
    </g>
</svg>
