<svg xmlns="http://www.w3.org/2000/svg" width="30" height="30" viewBox="0 0 30 30">
    <g fill="none" fill-rule="evenodd">
        <rect width="29.1" height="29.1" x=".45" y=".45" stroke="#5BBBFF" stroke-width=".9" rx="14.55"/>
        <path fill="#5BBBFF" d="M20.742 8.482a1.2 1.2 0 0 0-.97-.482c-.251 0-.513.071-.774.214L7.835 14.22c-.792.43-.849 1.072-.833 1.33.013.257.133.89.965 1.23l1.426.579c.272.11.575.165.9.165.052 0 .1-.005.152-.007-.02.026-.044.045-.062.07-.267.41-.28.965-.038 1.56.005.01.007.018.01.027.423.96.893 2.043.95 2.193a.96.96 0 0 0 .886.632c.6 0 .78-.297 1.766-1.944.077-.12.246-.4.277-.758.115.048.223.092.315.132l1.58.66c.316.132.593.248.739.312a.93.93 0 0 0 .493.142c.718 0 .893-.64.985-.983l.174-.66 2.412-9.094c.182-.687-.042-1.125-.19-1.325zm-7.58 11.056s-.896 1.495-.973 1.495l-.003-.002c-.086-.242-.972-2.254-.972-2.254-.161-.403-.133-.749.147-.749.06 0 .136.02.22.056l.687.366c.116.08.24.15.378.205l.033.014.067.03c.528.29.697.394.415.839zm6.862-9.987l-2.41 9.094c-.135.51-.25.932-.253.932l-.003-.013c0-.003-.395-.168-.875-.371l-1.58-.662c-.48-.197-1.267-.52-1.752-.713l-.08-.032-.294-.157c-.293-.23-.319-.612-.023-.933l4.892-5.378c.195-.215.269-.326.228-.326-.033 0-.144.07-.326.218l-6.19 5.012c-.27.219-.68.337-1.064.337-.198 0-.39-.031-.555-.097l-1.423-.58c-.483-.194-.5-.555-.042-.806L19.436 9.07a.71.71 0 0 1 .336-.102c.238 0 .349.216.252.584z"/>
    </g>
</svg>
