<svg xmlns="http://www.w3.org/2000/svg" width="32" height="32" viewBox="0 0 32 32">
    <g fill="none" fill-rule="evenodd" transform="translate(1 1)">
        <path fill="#5BBBFF" fill-rule="nonzero" d="M21.122 12.357c-.43.18-.892.303-1.377.357.495-.28.875-.725 1.054-1.255-.463.26-.976.45-1.522.55a2.459 2.459 0 0 0-1.75-.715c-1.323 0-2.397 1.015-2.397 2.268 0 .178.021.35.062.517-1.992-.095-3.758-.998-4.94-2.37a2.166 2.166 0 0 0-.325 1.14c0 .787.423 1.482 1.067 1.888a2.491 2.491 0 0 1-1.086-.283v.028c0 1.1.826 2.016 1.922 2.225a2.53 2.53 0 0 1-1.082.038c.305.902 1.19 1.557 2.24 1.576a4.985 4.985 0 0 1-2.978.97c-.193 0-.384-.01-.572-.03a7.066 7.066 0 0 0 3.675 1.018c4.409 0 6.82-3.456 6.82-6.454 0-.098-.003-.196-.007-.294.468-.32.874-.719 1.196-1.174"/>
        <circle cx="15" cy="15" r="15" stroke="#5ABAFE"/>
    </g>
</svg>
